<svg xmlns="http://www.w3.org/2000/svg" width="20" height="20" viewBox="0 0 120 120"><path d="M84.8 64.8H60c-.9 0-1.5.6-1.5 1.5v21.3c0 .9.6 1.5 1.5 1.5h24.9c.9 0 1.5-.6 1.5-1.5V66.2c-.1-.9-.6-1.4-1.6-1.4zm-1.4 21.3H61.5V67.7h21.9v18.4z"/><path d="M95.4 93.1h-2V60.5c0-.2 0-.3-.1-.4v-.2l.1-.1c2.2-2 3.5-4.8 3.5-7.8v-.3l-3.6-15.8v-8.7c0-.9-.6-1.5-1.5-1.5H28c-.9 0-1.5.6-1.5 1.5v10.5l-3.6 14v.3c0 2.9 1.3 5.8 3.5 7.8l.1.1v33.2h-2c-.9 0-1.6.7-1.6 1.6 0 .9.7 1.6 1.6 1.6h70.9c.9 0 1.6-.7 1.6-1.6 0-.9-.7-1.6-1.6-1.6zM29.5 28.6h61v7.7h-61v-7.7zm-.3 10.7h11.5v5.6c0 .9.6 1.5 1.5 1.5s1.5-.6 1.5-1.5v-5.6h14.8v5.6c0 .9.6 1.5 1.5 1.5s1.5-.6 1.5-1.5v-5.6h14.8v5.6c0 .9.6 1.5 1.5 1.5s1.5-.6 1.5-1.5v-5.6h11.9l2.4 11.2H26.3l2.9-11.2zm46.9 14.2l-.1.4c-.8 3.2-3.8 5.6-7.2 5.6-3.4 0-6.3-2.3-7.2-5.5l-.1-.4h14.6zm-17.7 0l-.1.4c-.8 3.2-3.8 5.6-7.2 5.6-3.4 0-6.3-2.3-7.2-5.5l-.1-.4h14.6zm-32.2.4l-.1-.4h14.5l-.1.4c-.8 3.2-3.8 5.6-7.2 5.6-3.4-.1-6.3-2.3-7.1-5.6zm25.2 39.2H36.6V67.7h14.8v25.4zm39.1 0H54.4V66.2c0-.9-.6-1.5-1.5-1.5H35.1c-.9 0-1.5.6-1.5 1.5V93h-4.1V61.5l.4.2c.9.5 2 .7 3.4.7 3.5 0 6.6-1.7 8.6-4.7l.2-.3.2.3c2 3 5.2 4.7 8.6 4.7 3.5 0 6.6-1.7 8.6-4.7l.2-.3.2.3c2 3 5.2 4.7 8.6 4.7s6.6-1.7 8.6-4.7l.2-.3.2.3c2 3 5.2 4.7 8.6 4.7 1.2 0 2.3-.2 3.5-.6l.4-.1v31.4zm-3.9-33.7c-3.4 0-6.3-2.3-7.2-5.5l-.1-.4h14.6l-.1.4c-.9 3.3-3.8 5.5-7.2 5.5z"/></svg>