<svg xmlns="http://www.w3.org/2000/svg" width="20" height="20" viewBox="0 0 120 120"><path d="M113.8 64.5c1.5 0 2.9-.8 3.8-2.3 1.2-2.1.7-4.4-1.1-5.7l-8.2-5.8c-.1-.1-.2-.2-.3-.2l-9.8-6.9c-.1 0-.1-.1-.2-.1-.2-.4-.3-.8-.5-1.1-.2-.4-.5-.8-.8-1.2l-2.3-22.5c-.2-2.2-2-3.8-4.4-3.8-2.4 0-4.2 1.6-4.4 3.8l-2.2 23.6v.1l-.3.6-19.4 13.8c-1.8 1.3-2.3 3.7-1.1 5.7.9 1.5 2.3 2.3 3.8 2.3.6 0 1.2-.1 1.8-.4l18-8.3-2.5 39.3v.1l-.6 9.1H63.3c-.8 0-1.4.6-1.4 1.4 0 .8.6 1.4 1.4 1.4h52.4c.8 0 1.4-.6 1.4-1.4 0-.8-.6-1.4-1.4-1.4h-18l-3-48.3 17.4 7.7c.5.4 1.1.5 1.7.5zM88.2 18.9c.1-1.2 1.4-1.3 1.6-1.3.3 0 1.5.1 1.6 1.3l2 20c-.4-.2-.7-.3-1.1-.4-2.1-.5-4.2-.3-6.1.8l2-20.4zM67 61.9c-1.1.5-1.8-.5-1.9-.8-.1-.2-.7-1.3.3-2.1l16.8-12.2c.1 1.3.5 2.5 1.1 3.6.7 1.1 1.6 2.1 2.6 2.7L67 61.9zm27.9 42.7h-9l.5-7.4v-.1L89 54.8l.7-.3h.6c.5 0 .9 0 1.4-.1v.2l3.2 50zM93.1 51c-1.2.7-2.7.9-4.1.6-1.4-.4-2.6-1.3-3.3-2.5-.7-1.2-.9-2.7-.6-4.1.4-1.4 1.3-2.6 2.5-3.3.8-.5 1.8-.7 2.7-.7.5 0 .9.1 1.4.2 1.4.4 2.6 1.3 3.3 2.5 1.5 2.5.6 5.8-1.9 7.3zm5.2-2.6c.1-.4.2-.9.2-1.3l5.4 3.8.2.2 10.7 7.6c1 .7.4 1.8.3 2.1-.1.2-.8 1.3-1.9.8l-18.5-8.2c1.8-1.2 3-2.9 3.6-5z"/><path d="M91.6 46.4c0 .8-.6 1.4-1.4 1.4-.8 0-1.4-.6-1.4-1.4 0-.8.6-1.4 1.4-1.4.8 0 1.4.6 1.4 1.4zm0 0M50 63.3V46.1l17.3-17.3c.4-.4.5-1 .3-1.5s-.7-.9-1.3-.9h-17l-8.4-12.7c-.3-.4-.7-.6-1.1-.6-.5 0-.9.2-1.1.6l-8.4 12.7h-17c-.6 0-1.1.3-1.3.9-.2.5-.1 1.1.3 1.5l17.3 17.3v34.6l-6.9 18.1h-3.5c-.8 0-1.4.6-1.4 1.4v4.5h-3c-.8 0-1.4.6-1.4 1.4 0 .8.6 1.4 1.4 1.4H65c.8 0 1.4-.6 1.4-1.4 0-.8-.6-1.4-1.4-1.4h-3v-4.5c0-.8-.6-1.4-1.4-1.4h-3.5L50 80.7V63.3zM29.5 42.2l-13-13h13v13zm4.7 37.4l5.5-5.5 5.5 5.5h-11zm10.3 2.8L39.7 86 35 82.4h9.5zm.8-38.2h-11l5.5-5.5 5.5 5.5zm-11.1-15h11l-5.5 5.5-5.5-5.5zm11.1 17.7l-5.5 5.5-5.5-5.5h11zm1.9 2v11l-5.5-5.5 5.5-5.5zm-1.9 13h-11l5.5-5.5 5.5 5.5zm0 2.7l-5.5 5.5-5.5-5.5h11zm-3.6 7.5l5.5-5.5v11l-5.5-5.5zm5.5-29.9l-5.5-5.5 5.5-5.5v11zm-7.5-25.1l6.3 9.4H33.5l6.2-9.4zm-7.4 14.1l5.5 5.5-5.5 5.5v-11zm0 17.7l5.5 5.5-5.5 5.5v-11zm0 17.7l5.5 5.5-5.5 5.5v-11zm-.8 16.6l6 4.6-10.9 8.3 4.9-12.9zM56 101.5h3.1v3.1H20.5v-3.1H56zm-28.4-2.7l12.2-9.3L52 98.8H27.6zm25.3-2.7L42 87.7l6-4.6 4.9 13zM50 42.2v-13h13l-13 13zm0 0"/></svg>