<svg xmlns="http://www.w3.org/2000/svg" width="20" height="20" viewBox="0 0 120 120"><path d="M108.4 93.9h-3.2V53.1h3.2c.5 0 1-.3 1.3-.8.3-.5.2-1 0-1.5l-11-17.1c-.3-.4-.7-.7-1.2-.7h-29l-6.9-6.9v-5.7h14.1c.5 0 1-.3 1.3-.8.3-.5.2-1.1-.1-1.5l-2.6-3.9 2.6-3.9c.3-.4.3-1 .1-1.5-.4-.5-.9-.8-1.4-.8H61.5V6.4c0-.8-.7-1.5-1.5-1.5s-1.5.7-1.5 1.5v19.7L51.6 33h-29c-.5 0-1 .3-1.2.7l-11 17.2c-.3.5-.3 1 0 1.5s.7.8 1.3.8h3.2V94h-3.2c-.8 0-1.5.7-1.5 1.5s.7 1.5 1.5 1.5h96.8c.8 0 1.5-.7 1.5-1.5-.1-1-.8-1.6-1.6-1.6zm-11.7-58l9.1 14.2H85.6L71.3 35.9h25.4zM72.9 11l-1.6 2.4c-.3.5-.3 1.1 0 1.6l1.6 2.4H61.5V11h11.4zM23.3 35.9h25.3L34.4 50.2H14.3l9-14.3zm-5.5 17.2h18.5l.1-.1L60 28.7l23.9 23.9.1.1h18.6v40.8H70.8v-20c0-2.5-2.1-4.6-4.6-4.6H53.8c-2.5 0-4.6 2.1-4.6 4.6v20.4H17.8V53.1zm50.1 22H52.1v-1.7c0-.9.7-1.7 1.7-1.7h12.5c.9 0 1.7.7 1.7 1.7v1.7zm-15.8 3h6.4v15.8h-6.4V78.1zm9.4 0h6.4v15.8h-6.4V78.1zm0 0"/><path d="M60 64c6 0 10.8-4.9 10.8-10.8S66 42.4 60 42.4c-6 0-10.8 4.9-10.8 10.8S54 64 60 64zm0-18.7c4.4 0 7.9 3.5 7.9 7.9s-3.5 7.9-7.9 7.9-7.9-3.5-7.9-7.9 3.5-7.9 7.9-7.9zm0 0"/><path d="M60 54.7c.8 0 1.5-.7 1.5-1.5v-4.7c0-.8-.7-1.5-1.5-1.5s-1.5.7-1.5 1.5v3.2h-3.2c-.8 0-1.5.7-1.5 1.5s.7 1.5 1.5 1.5H60zm-15.6 22h-7.8c-.8 0-1.5.7-1.5 1.5v9.4c0 .8.7 1.5 1.5 1.5h7.8c.8 0 1.5-.7 1.5-1.5v-9.4c0-.8-.7-1.5-1.5-1.5zm-1.5 2.9v1.8H38v-1.8h4.9zM38 86.1v-1.8h4.9v1.8H38zm-7.7-9.4h-7.8c-.8 0-1.5.7-1.5 1.5v9.4c0 .8.7 1.5 1.5 1.5h7.8c.8 0 1.5-.7 1.5-1.5v-9.4c0-.8-.6-1.5-1.5-1.5zm-1.4 2.9v1.8H24v-1.8h4.9zM24 86.1v-1.8h4.9v1.8H24zM43.9 58h-6.8c-1.1 0-2 .9-2 2v10.4c0 .8.7 1.5 1.5 1.5h7.8c.8 0 1.5-.7 1.5-1.5V59.9c0-1-.9-1.9-2-1.9zm-1 2.9v3.3H38v-3.3h4.9zm-4.9 8v-1.8h4.9v1.8H38zM29.9 58H23c-1.1 0-2 .9-2 2v10.4c0 .8.7 1.5 1.5 1.5h7.8c.8 0 1.5-.7 1.5-1.5V59.9c0-1-.9-1.9-1.9-1.9zm-1 2.9v3.3H24v-3.3h4.9zm-4.9 8v-1.8h4.9v1.8H24zM89.7 89h7.8c.8 0 1.5-.7 1.5-1.5v-9.4c0-.8-.7-1.5-1.5-1.5h-7.8c-.8 0-1.5.7-1.5 1.5v9.4c0 .8.6 1.5 1.5 1.5zm1.4-2.9v-1.8H96v1.8h-4.9zm4.9-6.5v1.8h-4.9v-1.8H96zM75.6 89h7.8c.8 0 1.5-.7 1.5-1.5v-9.4c0-.8-.7-1.5-1.5-1.5h-7.8c-.8 0-1.5.7-1.5 1.5v9.4c0 .8.7 1.5 1.5 1.5zm1.5-2.9v-1.8H82v1.8h-4.9zm4.8-6.5v1.8H77v-1.8h4.9zm7.8-7.8h7.8c.8 0 1.5-.7 1.5-1.5V59.9c0-1.1-.9-2-2-2h-6.8c-1.1 0-2 .9-2 2v10.4c0 .9.6 1.5 1.5 1.5zm1.4-2.9v-1.8H96v1.8h-4.9zm4.9-8v3.3h-4.9v-3.3H96zM75.6 71.8h7.8c.8 0 1.5-.7 1.5-1.5V59.9c0-1.1-.9-2-2-2h-6.8c-1.1 0-2 .9-2 2v10.4c0 .9.7 1.5 1.5 1.5zm1.5-2.9v-1.8H82v1.8h-4.9zm4.8-8v3.3H77v-3.3h4.9zm0 0"/></svg>