<svg xmlns="http://www.w3.org/2000/svg" width="20" height="20" viewBox="0 0 120 120"><path d="M104.2 42.6c-.5-.3-1.1-.3-1.6 0L98.1 45 96.8 1.6c0-.9-.7-1.6-1.6-1.6H83.8c-.9 0-1.6.7-1.6 1.6l-1.5 53.1-5 2.8V44c0-.9-.7-1.6-1.6-1.6-.3 0-.5.1-.8.2l-27 14.9V44c0-.9-.7-1.6-1.6-1.6-.3 0-.5.1-.8.2L14.6 58.8c-.5.3-.8.8-.8 1.4V96c0 .9.7 1.6 1.6 1.6h88c.9 0 1.6-.7 1.6-1.6V44c0-.6-.3-1.1-.8-1.4zM85.4 3.3h8.2l.1 3.3h-8.4l.1-3.3zm-.2 6.5h8.6l1.1 37.1-10.9 6 1.2-43.1zM57.7 94.5h-9.8v-8.1h9.8v8.1zm13.1 0H61v-8.1h9.8v8.1zm30.9 0H74v-9.8c0-.9-.7-1.6-1.6-1.6H46.3c-.9 0-1.6.7-1.6 1.6v9.8H17V61.2l26.1-14.5v13.5c0 .9.7 1.6 1.6 1.6.3 0 .5-.1.8-.2l26.9-14.9v13.5c0 .9.7 1.6 1.6 1.6.3 0 .5-.1.8-.2l15.4-8.5 7.1-4 4.4-2.4v47.8zm0 0"/><path d="M36.5 65.2h-13c-.9 0-1.6.7-1.6 1.6v6.5c0 .9.7 1.6 1.6 1.6h13c.9 0 1.6-.7 1.6-1.6v-6.5c.1-.9-.7-1.6-1.6-1.6zm-1.6 6.5h-9.8v-3.3h9.8v3.3zm31-6.5h-13c-.9 0-1.6.7-1.6 1.6v6.5c0 .9.7 1.6 1.6 1.6h13c.9 0 1.6-.7 1.6-1.6v-6.5c0-.9-.7-1.6-1.6-1.6zm-1.7 6.5h-9.8v-3.3h9.8v3.3zm31-6.5h-13c-.9 0-1.6.7-1.6 1.6v6.5c0 .9.7 1.6 1.6 1.6h13c.9 0 1.6-.7 1.6-1.6v-6.5c0-.9-.7-1.6-1.6-1.6zm-1.6 6.5h-9.8v-3.3h9.8v3.3zm0 0"/></svg>