<svg xmlns="http://www.w3.org/2000/svg" width="20" height="20" viewBox="0 0 120 120"><path d="M107.5 86.6h-4.9V73.2c0-1-.8-1.8-1.8-1.8h-9.5c-1 0-1.8.8-1.8 1.8v13.4h-4.9V52.1h2c1 0 1.8-.8 1.8-1.8v-5.8h19.1v42.1zM8.9 94.3h-2c-1 0-1.8.8-1.8 1.8s.8 1.8 1.8 1.8h106.2c1 0 1.8-.8 1.8-1.8s-.8-1.8-1.8-1.8h-2V44.5h2c1 0 1.8-.8 1.8-1.8s-.8-1.8-1.8-1.8H92.8l-31-18.2s-.8-.5-1.8-.5-1.8.5-1.8.5L27.2 41H6.9c-1 0-1.8.8-1.8 1.8s.8 1.8 1.8 1.8h2v49.7zM12.5 77V44.5h19.1v5.8c0 1 .8 1.8 1.8 1.8h2v34.5h-4.9V73.2c0-1-.8-1.8-1.8-1.8h-9.5c-1 0-1.8.8-1.8 1.8v13.4h-4.9V77zm80.6-2h6v11.7h-6V75zM60 25.8L85.8 41H34.2L60 25.8zM35.1 48.6v-4.1h49.7v4.1H35.1zm46 3.5v34.5H77V52.1h4.1zM65.6 86.6V52.1h7.9v34.5h-7.9zM62 52.1v34.5h-4V52.1h4zM46.6 86.6V52.1h7.9v34.5h-7.9zM43 52.1v34.5h-4.1V52.1H43zM21 75h6v11.7h-6V75zm10.6 19.3H12.5v-4.1h19.1v4.1zm53.3 0H35.1v-4.1h49.7v4.1zm22.6 0H88.4v-4.1h19.1v4.1zm0 0"/><path d="M23.9 50.5c-3.6 0-6.5 2.9-6.5 6.5v6.7c0 1 .8 1.8 1.8 1.8h9.5c1 0 1.8-.8 1.8-1.8V57c0-3.6-3-6.5-6.6-6.5zm3 11.4h-6V57c0-1.6 1.3-3 3-3 1.6 0 3 1.3 3 3v4.9zm69.2-11.4c-3.6 0-6.5 2.9-6.5 6.5v6.7c0 1 .8 1.8 1.8 1.8h9.5c1 0 1.8-.8 1.8-1.8V57c-.1-3.6-3-6.5-6.6-6.5zM99 61.9h-6V57c0-1.6 1.3-3 3-3 1.6 0 3 1.3 3 3v4.9zm0 0"/></svg>