<svg xmlns="http://www.w3.org/2000/svg" width="20" height="20" viewBox="0 0 120 120"><path d="M104.9 50c.3.2.6.3 1 .3.2 0 .5-.1.7-.2.5-.3.9-.8.9-1.4v-8.2c0-.5-.2-.9-.6-1.2l-25-19.7c-1.8-1.4-4.2-1.4-6 0L66.5 27v-2.9c0-.8-.7-1.5-1.5-1.5h-6.6c-.8 0-1.5.7-1.5 1.5v10.5l-6 4.7c-.4.3-.6.7-.6 1.2v8.2c0 .6.3 1.1.9 1.4.5.3 1.2.2 1.6-.2l.8-.6v15L39.2 53.1c-1.8-1.4-4.2-1.4-6 0l-20 15.8c-.4.3-.6.7-.6 1.2v8.2c0 .6.3 1.1.9 1.4.2.1.4.2.7.2.3 0 .7-.1 1-.3l.8-.6v15.9h-1.7c-.8 0-1.5.7-1.5 1.5s.7 1.5 1.5 1.5h91.8c.8 0 1.5-.7 1.5-1.5s-.7-1.5-1.5-1.5h-1.7V49.4l.5.6zm-45-24.2h3.5v3.8l-3.5 2.7v-6.5zm-6.6 15.6l24.4-19.2c.6-.5 1.5-.5 2.2 0l24.4 19.2v4.3L79.8 26.3c-.3-.2-.6-.3-1-.3-.3 0-.7.1-1 .3L53.3 45.6v-4.2zM15.6 70.9l19.5-15.4c.6-.5 1.5-.5 2.2 0l16.2 12.8v4.3L37.2 59.7c-.6-.4-1.3-.4-1.9 0L15.6 75.1v-4.2zm3.3 5.6l17.3-13.6 17.3 13.6v18.3h-6.8V76.7c0-.8-.7-1.5-1.5-1.5h-18c-.8 0-1.5.7-1.5 1.5v18.1h-6.8V76.5zm9.9 8.3h15v3.5h-15v-3.5zm14.9-3.1h-15v-3.5h15v3.5zm-14.9 9.6h15v3.5h-15v-3.5zm44.4-8h-.1c-.4 0-.8.2-1.1.5-.3.3-.5.7-.5 1.1 0 .4.2.8.5 1.1.3.3.7.5 1.1.5h.1v8.4h-6.8v-20h6.8v8.4zm27.9 11.5H76.3V73.4c0-.8-.7-1.5-1.5-1.5H65c-.8 0-1.5.7-1.5 1.5v21.4h-6.8V47l22.2-17.5L101.1 47v47.8zm0 0"/><path d="M82.9 88h9.8c.8 0 1.5-.7 1.5-1.5V73.4c0-.8-.7-1.5-1.5-1.5h-9.8c-.8 0-1.5.7-1.5 1.5v13.1c0 .9.7 1.5 1.5 1.5zm1.6-3v-5.1h6.8V85h-6.8zm6.7-10.1v1.8h-6.8v-1.8h6.8zm-8.3-9.8h9.8c.8 0 1.5-.7 1.5-1.5V50.5c0-.8-.7-1.5-1.5-1.5h-9.8c-.8 0-1.5.7-1.5 1.5v13.1c0 .8.7 1.5 1.5 1.5zm1.6-3.1v-5.1h6.8V62h-6.8zm6.7-10v1.8h-6.8V52h6.8zm-16.4-3.1H65c-.8 0-1.5.7-1.5 1.5v13.1c0 .8.7 1.5 1.5 1.5h9.8c.8 0 1.5-.7 1.5-1.5v-13c0-.9-.7-1.6-1.5-1.6zM73.2 52v1.8h-6.8V52h6.8zm-6.7 10v-5.1h6.8V62h-6.8zm0 0"/></svg>