<svg class="svg-phone" xmlns="http://www.w3.org/2000/svg" width="20" height="20" viewBox="0 0 20 20"><path d="M19.56 17.77a3.75 3.75 0 0 1-1.73 1.51 5.48 5.48 0 0 1-2.65.72 11 11 0 0 1-3.72-1A13.42 13.42 0 0 1 9 17.84 23.82 23.82 0 0 1 2.16 11 13.42 13.42 0 0 1 1 8.54a11 11 0 0 1-1-3.72 5.48 5.48 0 0 1 .72-2.65A3.75 3.75 0 0 1 2.23.44 6.4 6.4 0 0 1 4.2 0a.78.78 0 0 1 .3 0c.3.1.61.8.75 1.08.46.81.9 1.64 1.37 2.43.23.37.65.83.65 1.27 0 .9-2.57 2.22-2.57 2.93a3.12 3.12 0 0 0 .55 1.22 14.11 14.11 0 0 0 5.82 5.81 3 3 0 0 0 1.22.56c.76 0 2-2.57 2.89-2.57.44 0 .9.42 1.27.65.79.47 1.62.91 2.43 1.36.28.15 1 .46 1.08.76a.78.78 0 0 1 0 .3 6.4 6.4 0 0 1-.4 1.97z"/></svg>